<svg id="visual" viewBox="0 0 900 450" width="900" height="450" xmlns="http://www.w3.org/2000/svg" xmlns:xlink="http://www.w3.org/1999/xlink" version="1.1"><path d="M0 78L13.7 81.7C27.3 85.3 54.7 92.7 82 91.8C109.3 91 136.7 82 163.8 83.5C191 85 218 97 245.2 98.5C272.3 100 299.7 91 327 85C354.3 79 381.7 76 409 70C436.3 64 463.7 55 491 56.5C518.3 58 545.7 70 573 75.3C600.3 80.7 627.7 79.3 654.8 77.2C682 75 709 72 736.2 72C763.3 72 790.7 75 818 84.7C845.3 94.3 872.7 110.7 886.3 118.8L900 127L900 0L886.3 0C872.7 0 845.3 0 818 0C790.7 0 763.3 0 736.2 0C709 0 682 0 654.8 0C627.7 0 600.3 0 573 0C545.7 0 518.3 0 491 0C463.7 0 436.3 0 409 0C381.7 0 354.3 0 327 0C299.7 0 272.3 0 245.2 0C218 0 191 0 163.8 0C136.7 0 109.3 0 82 0C54.7 0 27.3 0 13.7 0L0 0Z" fill="#52b69a"></path><path d="M0 109L13.7 119.5C27.3 130 54.7 151 82 151.8C109.3 152.7 136.7 133.3 163.8 134.8C191 136.3 218 158.7 245.2 163.8C272.3 169 299.7 157 327 151C354.3 145 381.7 145 409 143.5C436.3 142 463.7 139 491 140.5C518.3 142 545.7 148 573 151.8C600.3 155.7 627.7 157.3 654.8 154.3C682 151.3 709 143.7 736.2 145.8C763.3 148 790.7 160 818 164.5C845.3 169 872.7 166 886.3 164.5L900 163L900 125L886.3 116.8C872.7 108.7 845.3 92.3 818 82.7C790.7 73 763.3 70 736.2 70C709 70 682 73 654.8 75.2C627.7 77.3 600.3 78.7 573 73.3C545.7 68 518.3 56 491 54.5C463.7 53 436.3 62 409 68C381.7 74 354.3 77 327 83C299.7 89 272.3 98 245.2 96.5C218 95 191 83 163.8 81.5C136.7 80 109.3 89 82 89.8C54.7 90.7 27.3 83.3 13.7 79.7L0 76Z" fill="#70c598"></path><path d="M0 150L13.7 162.7C27.3 175.3 54.7 200.7 82 205.8C109.3 211 136.7 196 163.8 193.8C191 191.7 218 202.3 245.2 202.3C272.3 202.3 299.7 191.7 327 187.2C354.3 182.7 381.7 184.3 409 181.3C436.3 178.3 463.7 170.7 491 175.2C518.3 179.7 545.7 196.3 573 206.2C600.3 216 627.7 219 654.8 216C682 213 709 204 736.2 201.7C763.3 199.3 790.7 203.7 818 206.7C845.3 209.7 872.7 211.3 886.3 212.2L900 213L900 161L886.3 162.5C872.7 164 845.3 167 818 162.5C790.7 158 763.3 146 736.2 143.8C709 141.7 682 149.3 654.8 152.3C627.7 155.3 600.3 153.7 573 149.8C545.7 146 518.3 140 491 138.5C463.7 137 436.3 140 409 141.5C381.7 143 354.3 143 327 149C299.7 155 272.3 167 245.2 161.8C218 156.7 191 134.3 163.8 132.8C136.7 131.3 109.3 150.7 82 149.8C54.7 149 27.3 128 13.7 117.5L0 107Z" fill="#91d495"></path><path d="M0 289L13.7 301.8C27.3 314.7 54.7 340.3 82 338.2C109.3 336 136.7 306 163.8 293.2C191 280.3 218 284.7 245.2 295.8C272.3 307 299.7 325 327 325.8C354.3 326.7 381.7 310.3 409 300.7C436.3 291 463.7 288 491 297C518.3 306 545.7 327 573 329.2C600.3 331.3 627.7 314.7 654.8 319.2C682 323.7 709 349.3 736.2 362.2C763.3 375 790.7 375 818 363.7C845.3 352.3 872.7 329.7 886.3 318.3L900 307L900 211L886.3 210.2C872.7 209.3 845.3 207.7 818 204.7C790.7 201.7 763.3 197.3 736.2 199.7C709 202 682 211 654.8 214C627.7 217 600.3 214 573 204.2C545.7 194.3 518.3 177.7 491 173.2C463.7 168.7 436.3 176.3 409 179.3C381.7 182.3 354.3 180.7 327 185.2C299.7 189.7 272.3 200.3 245.2 200.3C218 200.3 191 189.7 163.8 191.8C136.7 194 109.3 209 82 203.8C54.7 198.7 27.3 173.3 13.7 160.7L0 148Z" fill="#b4e192"></path><path d="M0 451L13.7 451C27.3 451 54.7 451 82 451C109.3 451 136.7 451 163.8 451C191 451 218 451 245.2 451C272.3 451 299.7 451 327 451C354.3 451 381.7 451 409 451C436.3 451 463.7 451 491 451C518.3 451 545.7 451 573 451C600.3 451 627.7 451 654.8 451C682 451 709 451 736.2 451C763.3 451 790.7 451 818 451C845.3 451 872.7 451 886.3 451L900 451L900 305L886.3 316.3C872.7 327.7 845.3 350.3 818 361.7C790.7 373 763.3 373 736.2 360.2C709 347.3 682 321.7 654.8 317.2C627.7 312.7 600.3 329.3 573 327.2C545.7 325 518.3 304 491 295C463.7 286 436.3 289 409 298.7C381.7 308.3 354.3 324.7 327 323.8C299.7 323 272.3 305 245.2 293.8C218 282.7 191 278.3 163.8 291.2C136.7 304 109.3 334 82 336.2C54.7 338.3 27.3 312.7 13.7 299.8L0 287Z" fill="#d9ed92"></path></svg>